# xmcd
#
# Track frame offsets:
#	150
#	16445
#	39457
#
# Disc length: 844 seconds
#
# Revision: 0
# Processed by: cddbd v1.5.1PL0 Copyright (c) Steve Scherf et al.
# Submitted via: audiograbber 1.83.01
#
DISCID=1b034a03
DTITLE=Rhythm and Dance Machine - Somewhere in the World
DYEAR=1995
DGENRE=Dance
TTITLE0=Somewhere in the World (Radio Mix)
TTITLE1=Somewhere in the World (Club Mix)
TTITLE2=Somewhere in the World (Mayday Trip)
EXTD=
EXTT0=
EXTT1=
EXTT2=
PLAYORDER=
